<svg width="176" height="48" viewBox="0 0 176 48" fill="none" xmlns="http://www.w3.org/2000/svg" role="img" aria-label="DriveVault">
  <defs>
    <linearGradient id="drivevaultBadge" x1="4" y1="4" x2="48" y2="48" gradientUnits="userSpaceOnUse">
      <stop stop-color="#111827"/>
      <stop offset="1" stop-color="#080A0F"/>
    </linearGradient>
    <linearGradient id="drivevaultSheen" x1="6" y1="6" x2="44" y2="44" gradientUnits="userSpaceOnUse">
      <stop stop-color="#FFFFFF" stop-opacity="0.25"/>
      <stop offset="1" stop-color="#FFFFFF" stop-opacity="0"/>
    </linearGradient>
    <filter id="drivevaultShadow" x="0" y="0" width="176" height="48" filterUnits="userSpaceOnUse">
      <feDropShadow dx="0" dy="3" stdDeviation="2.2" flood-color="#080A0F" flood-opacity="0.24"/>
    </filter>
  </defs>
  <g filter="url(#drivevaultShadow)">
    <rect x="1.5" y="1.5" width="45" height="45" rx="12" fill="url(#drivevaultBadge)" stroke="#D6B25E" stroke-width="3"/>
    <path d="M13 31.5V16.5H21.8C25.8 16.5 28.4 18.7 28.4 21.9C28.4 24 27.2 25.6 25.3 26.5L29.1 31.5H23.2L20.2 27.3H18.2V31.5H13ZM18.2 22.9H21.1C22.7 22.9 23.7 22.2 23.7 21.1C23.7 20 22.8 19.3 21.2 19.3H18.2V22.9Z" fill="#F8FAFC"/>
    <path d="M34 31.5V16.5H39.4C44.4 16.5 47.8 19.3 47.8 24C47.8 28.6 44.4 31.5 39.4 31.5H34ZM39.1 27.4H39.4C41.8 27.4 42.9 26.2 42.9 24C42.9 21.7 41.8 20.5 39.4 20.5H39.1V27.4Z" fill="#D6B25E"/>
    <path d="M61 36C65.2 36 68.8 34.5 71.6 31.9L68.3 28.4C66.4 30 64.1 30.9 61.3 30.9C57.1 30.9 54.1 28.3 53.2 24.8H72V22.8C72 16.1 67.1 11.5 60.6 11.5C53.6 11.5 48.7 16.6 48.7 23.7C48.7 30.7 53.7 36 61 36ZM60.4 16.2C63.1 16.2 65.1 17.8 65.5 20.5H53.4C54 17.7 56.1 16.2 60.4 16.2Z" fill="#111827"/>
    <path d="M80.5 35.5C76.2 35.5 72.9 33.7 71.1 31.2L74.6 28.1C76 29.7 77.9 30.8 80.6 30.8C82.6 30.8 83.7 30.1 83.7 29C83.7 27.8 82.6 27.3 79.8 26.8C75.5 26 72 24.7 72 20.5C72 17 75.1 14.6 80 14.6C83.7 14.6 86.5 15.7 88.3 17.8L84.9 21C83.6 19.7 82 18.9 79.9 18.9C78.2 18.9 77.2 19.5 77.2 20.5C77.2 21.7 78.3 22.1 81 22.6C85.7 23.5 89 24.7 89 28.8C89 32.7 85.9 35.5 80.5 35.5Z" fill="#D6B25E"/>
    <path d="M99.5 36C94 36 89.9 31.9 89.9 26.5C89.9 21.1 94 17 99.5 17C105 17 109.1 21.1 109.1 26.5C109.1 31.9 105 36 99.5 36ZM99.5 30.8C101.9 30.8 103.8 28.9 103.8 26.5C103.8 24.1 101.9 22.2 99.5 22.2C97.1 22.2 95.2 24.1 95.2 26.5C95.2 28.9 97.1 30.8 99.5 30.8Z" fill="#111827"/>
    <path d="M115.5 35.5L109.5 17.5H115L118.3 28.8L121.8 17.5H126.3L129.8 28.8L133.1 17.5H138.5L132.5 35.5H127.4L123.8 24.4L120.2 35.5H115.5Z" fill="#111827"/>
    <path d="M141.8 35.5V17.5H146.8V20.2C148.1 18.2 150 17 152.9 17V22.1C149.4 21.9 146.8 23.4 146.8 27.2V35.5H141.8Z" fill="#111827"/>
    <path d="M164 36C159.6 36 156.4 33.7 155.5 30.4L160.1 29.2C160.6 30.8 162 31.7 164.1 31.7C166 31.7 167.1 31 167.1 29.9C167.1 28.9 166.2 28.4 163.7 27.9C159.5 27 156.2 25.8 156.2 21.8C156.2 18.2 159.1 15.9 163.8 15.9C167.3 15.9 169.9 17.2 171.3 19.9L166.9 21.7C166.3 20.6 165.3 20 163.8 20C162.3 20 161.3 20.5 161.3 21.4C161.3 22.5 162.4 22.9 165 23.4C169 24.1 172.3 25.4 172.3 29.4C172.3 33.3 169.2 36 164 36Z" fill="#D6B25E"/>
    <rect x="1.5" y="1.5" width="45" height="45" rx="12" fill="url(#drivevaultSheen)" opacity="0.42"/>
  </g>
</svg>
