<svg width="64" height="64" viewBox="0 0 64 64" fill="none" xmlns="http://www.w3.org/2000/svg" role="img" aria-label="DriveVault">
  <defs>
    <linearGradient id="drivevaultBadgeSmall" x1="6" y1="6" x2="58" y2="58" gradientUnits="userSpaceOnUse">
      <stop stop-color="#111827"/>
      <stop offset="1" stop-color="#080A0F"/>
    </linearGradient>
    <filter id="drivevaultShadowSmall" x="0" y="0" width="64" height="64" filterUnits="userSpaceOnUse">
      <feDropShadow dx="0" dy="2" stdDeviation="1.6" flood-color="#080A0F" flood-opacity="0.28"/>
    </filter>
  </defs>
  <g filter="url(#drivevaultShadowSmall)">
    <rect x="4" y="4" width="56" height="56" rx="16" fill="url(#drivevaultBadgeSmall)" stroke="#D6B25E" stroke-width="4"/>
    <path d="M18 43V21H30.4C35.3 21 38.6 23.9 38.6 28.1C38.6 30.8 37.2 32.9 35.1 34.1L40.1 43H31.9L28 36.7H24.5V43H18ZM24.5 30.2H29.1C31.1 30.2 32.4 29.3 32.4 27.8C32.4 26.4 31.1 25.5 29.1 25.5H24.5V30.2Z" fill="#F8FAFC"/>
    <path d="M42.5 43V21H50.6C56.3 21 59.8 24.4 59.8 32C59.8 39.7 56.3 43 50.6 43H42.5ZM49.5 37.1H50.3C53.1 37.1 54.5 35.5 54.5 32C54.5 28.6 53.1 27 50.3 27H49.5V37.1Z" fill="#D6B25E"/>
  </g>
</svg>
